<svg width="256" height="256" viewBox="0 0 256 256" fill="none" xmlns="http://www.w3.org/2000/svg">
<g clip-path="url(#clip0_4259_24)">
<circle cx="107.576" cy="11.5759" r="11.5759" fill="#D9D9D9"/>
<circle cx="107.576" cy="139.576" r="11.5759" fill="#D9D9D9"/>
<circle cx="107.576" cy="75.5759" r="11.5759" fill="#D9D9D9"/>
<circle cx="107.576" cy="203.576" r="11.5759" fill="#D9D9D9"/>
<circle cx="75.5759" cy="43.5759" r="11.5759" fill="#D9D9D9"/>
<circle cx="75.5759" cy="171.576" r="11.5759" fill="#D9D9D9"/>
<circle cx="75.5759" cy="235.576" r="11.5759" fill="#D9D9D9"/>
<circle cx="75.5759" cy="107.576" r="11.5759" fill="#D9D9D9"/>
<circle cx="171.576" cy="11.5759" r="11.5759" fill="#D9D9D9"/>
<circle cx="171.576" cy="139.576" r="11.5759" fill="#D9D9D9"/>
<circle cx="171.576" cy="75.5759" r="11.5759" fill="#D9D9D9"/>
<circle cx="171.576" cy="203.576" r="11.5759" fill="#D9D9D9"/>
<circle cx="139.576" cy="43.5759" r="11.5759" fill="#D9D9D9"/>
<circle cx="139.576" cy="171.576" r="11.5759" fill="#D9D9D9"/>
<circle cx="139.576" cy="235.576" r="11.5759" fill="#D9D9D9"/>
<circle cx="139.576" cy="107.576" r="11.5759" fill="#D9D9D9"/>
<circle cx="235.576" cy="11.5759" r="11.5759" fill="#D9D9D9"/>
<circle cx="235.576" cy="139.576" r="11.5759" fill="#D9D9D9"/>
<circle cx="235.576" cy="75.5759" r="11.5759" fill="#D9D9D9"/>
<circle cx="235.576" cy="203.576" r="11.5759" fill="#D9D9D9"/>
<circle cx="203.576" cy="43.5759" r="11.5759" fill="#D9D9D9"/>
<circle cx="203.576" cy="171.576" r="11.5759" fill="#D9D9D9"/>
<circle cx="203.576" cy="235.576" r="11.5759" fill="#D9D9D9"/>
<circle cx="203.576" cy="107.576" r="11.5759" fill="#D9D9D9"/>
<circle cx="44" cy="12" r="12" fill="#D9D9D9"/>
<circle cx="44" cy="140" r="12" fill="#D9D9D9"/>
<circle cx="44" cy="76" r="12" fill="#D9D9D9"/>
<circle cx="44" cy="204" r="12" fill="#D9D9D9"/>
<circle cx="12" cy="44" r="12" fill="#D9D9D9"/>
<circle cx="12" cy="172" r="12" fill="#D9D9D9"/>
<circle cx="12" cy="236" r="12" fill="#D9D9D9"/>
<circle cx="12" cy="108" r="12" fill="#D9D9D9"/>
</g>
<defs>
<clipPath id="clip0_4259_24">
<rect width="256" height="256" fill="white"/>
</clipPath>
</defs>
</svg>
