<svg width="256" height="256" viewBox="0 0 256 256" fill="none" xmlns="http://www.w3.org/2000/svg">
<g clip-path="url(#clip0_4261_153)">
<path d="M112.274 0.0649414L115.866 11.1207H127.491L118.086 17.9535L121.678 29.0092L112.274 22.1764L102.869 29.0092L106.462 17.9535L97.057 11.1207H108.682L112.274 0.0649414Z" fill="#D9D9D9"/>
<path d="M112.274 128.065L115.866 139.121H127.491L118.086 145.953L121.678 157.009L112.274 150.176L102.869 157.009L106.462 145.953L97.057 139.121H108.682L112.274 128.065Z" fill="#D9D9D9"/>
<path d="M112.274 64.0649L115.866 75.1207H127.491L118.086 81.9535L121.678 93.0092L112.274 86.1764L102.869 93.0092L106.462 81.9535L97.057 75.1207H108.682L112.274 64.0649Z" fill="#D9D9D9"/>
<path d="M112.274 192.065L115.866 203.121H127.491L118.086 209.953L121.678 221.009L112.274 214.176L102.869 221.009L106.462 209.953L97.057 203.121H108.682L112.274 192.065Z" fill="#D9D9D9"/>
<path d="M80.2739 32.0649L83.8661 43.1207H95.4908L86.0863 49.9535L89.6785 61.0092L80.2739 54.1764L70.8694 61.0092L74.4616 49.9535L65.057 43.1207H76.6817L80.2739 32.0649Z" fill="#D9D9D9"/>
<path d="M80.2739 160.065L83.8661 171.121H95.4908L86.0863 177.953L89.6785 189.009L80.2739 182.176L70.8694 189.009L74.4616 177.953L65.057 171.121H76.6817L80.2739 160.065Z" fill="#D9D9D9"/>
<path d="M80.2739 224.065L83.8661 235.121H95.4908L86.0863 241.953L89.6785 253.009L80.2739 246.176L70.8694 253.009L74.4616 241.953L65.057 235.121H76.6817L80.2739 224.065Z" fill="#D9D9D9"/>
<path d="M80.2739 96.0649L83.8661 107.121H95.4908L86.0863 113.953L89.6785 125.009L80.2739 118.176L70.8694 125.009L74.4616 113.953L65.057 107.121H76.6817L80.2739 96.0649Z" fill="#D9D9D9"/>
<path d="M176.274 0.0649414L179.866 11.1207H191.491L182.086 17.9535L185.678 29.0092L176.274 22.1764L166.869 29.0092L170.462 17.9535L161.057 11.1207H172.682L176.274 0.0649414Z" fill="#D9D9D9"/>
<path d="M176.274 128.065L179.866 139.121H191.491L182.086 145.953L185.678 157.009L176.274 150.176L166.869 157.009L170.462 145.953L161.057 139.121H172.682L176.274 128.065Z" fill="#D9D9D9"/>
<path d="M176.274 64.0649L179.866 75.1207H191.491L182.086 81.9535L185.678 93.0092L176.274 86.1764L166.869 93.0092L170.462 81.9535L161.057 75.1207H172.682L176.274 64.0649Z" fill="#D9D9D9"/>
<path d="M176.274 192.065L179.866 203.121H191.491L182.086 209.953L185.678 221.009L176.274 214.176L166.869 221.009L170.462 209.953L161.057 203.121H172.682L176.274 192.065Z" fill="#D9D9D9"/>
<path d="M144.274 32.0649L147.866 43.1207H159.491L150.086 49.9535L153.678 61.0092L144.274 54.1764L134.869 61.0092L138.462 49.9535L129.057 43.1207H140.682L144.274 32.0649Z" fill="#D9D9D9"/>
<path d="M144.274 160.065L147.866 171.121H159.491L150.086 177.953L153.678 189.009L144.274 182.176L134.869 189.009L138.462 177.953L129.057 171.121H140.682L144.274 160.065Z" fill="#D9D9D9"/>
<path d="M144.274 224.065L147.866 235.121H159.491L150.086 241.953L153.678 253.009L144.274 246.176L134.869 253.009L138.462 241.953L129.057 235.121H140.682L144.274 224.065Z" fill="#D9D9D9"/>
<path d="M144.274 96.0649L147.866 107.121H159.491L150.086 113.953L153.678 125.009L144.274 118.176L134.869 125.009L138.462 113.953L129.057 107.121H140.682L144.274 96.0649Z" fill="#D9D9D9"/>
<path d="M240.274 0.0649414L243.866 11.1207H255.491L246.086 17.9535L249.678 29.0092L240.274 22.1764L230.869 29.0092L234.462 17.9535L225.057 11.1207H236.682L240.274 0.0649414Z" fill="#D9D9D9"/>
<path d="M240.274 128.065L243.866 139.121H255.491L246.086 145.953L249.678 157.009L240.274 150.176L230.869 157.009L234.462 145.953L225.057 139.121H236.682L240.274 128.065Z" fill="#D9D9D9"/>
<path d="M240.274 64.0649L243.866 75.1207H255.491L246.086 81.9535L249.678 93.0092L240.274 86.1764L230.869 93.0092L234.462 81.9535L225.057 75.1207H236.682L240.274 64.0649Z" fill="#D9D9D9"/>
<path d="M240.274 192.065L243.866 203.121H255.491L246.086 209.953L249.678 221.009L240.274 214.176L230.869 221.009L234.462 209.953L225.057 203.121H236.682L240.274 192.065Z" fill="#D9D9D9"/>
<path d="M208.274 32.0649L211.866 43.1207H223.491L214.086 49.9535L217.678 61.0092L208.274 54.1764L198.869 61.0092L202.462 49.9535L193.057 43.1207H204.682L208.274 32.0649Z" fill="#D9D9D9"/>
<path d="M208.274 160.065L211.866 171.121H223.491L214.086 177.953L217.678 189.009L208.274 182.176L198.869 189.009L202.462 177.953L193.057 171.121H204.682L208.274 160.065Z" fill="#D9D9D9"/>
<path d="M208.274 224.065L211.866 235.121H223.491L214.086 241.953L217.678 253.009L208.274 246.176L198.869 253.009L202.462 241.953L193.057 235.121H204.682L208.274 224.065Z" fill="#D9D9D9"/>
<path d="M208.274 96.0649L211.866 107.121H223.491L214.086 113.953L217.678 125.009L208.274 118.176L198.869 125.009L202.462 113.953L193.057 107.121H204.682L208.274 96.0649Z" fill="#D9D9D9"/>
<path d="M48.2739 128.065L51.8661 139.121H63.4908L54.0863 145.953L57.6785 157.009L48.2739 150.176L38.8694 157.009L42.4616 145.953L33.057 139.121H44.6817L48.2739 128.065Z" fill="#D9D9D9"/>
<path d="M48.2739 64.0649L51.8661 75.1207H63.4908L54.0863 81.9535L57.6785 93.0092L48.2739 86.1764L38.8694 93.0092L42.4616 81.9535L33.057 75.1207H44.6817L48.2739 64.0649Z" fill="#D9D9D9"/>
<path d="M48.2739 192.065L51.8661 203.121H63.4908L54.0863 209.953L57.6785 221.009L48.2739 214.176L38.8694 221.009L42.4616 209.953L33.057 203.121H44.6817L48.2739 192.065Z" fill="#D9D9D9"/>
<path d="M16.2739 32.0649L19.8661 43.1207H31.4908L22.0863 49.9535L25.6785 61.0092L16.2739 54.1764L6.86936 61.0092L10.4616 49.9535L1.05702 43.1207H12.6817L16.2739 32.0649Z" fill="#D9D9D9"/>
<path d="M16.2739 160.065L19.8661 171.121H31.4908L22.0863 177.953L25.6785 189.009L16.2739 182.176L6.86936 189.009L10.4616 177.953L1.05702 171.121H12.6817L16.2739 160.065Z" fill="#D9D9D9"/>
<path d="M16.2739 224.065L19.8661 235.121H31.4908L22.0863 241.953L25.6785 253.009L16.2739 246.176L6.86936 253.009L10.4616 241.953L1.05702 235.121H12.6817L16.2739 224.065Z" fill="#D9D9D9"/>
<path d="M16.2739 96.0649L19.8661 107.121H31.4908L22.0863 113.953L25.6785 125.009L16.2739 118.176L6.86936 125.009L10.4616 113.953L1.05702 107.121H12.6817L16.2739 96.0649Z" fill="#D9D9D9"/>
<path d="M48.2739 0.0649414L51.8661 11.1207H63.4908L54.0863 17.9535L57.6785 29.0092L48.2739 22.1764L38.8694 29.0092L42.4616 17.9535L33.057 11.1207H44.6817L48.2739 0.0649414Z" fill="#D9D9D9"/>
</g>
<defs>
<clipPath id="clip0_4261_153">
<rect width="256" height="256" fill="white"/>
</clipPath>
</defs>
</svg>
