<svg width="256" height="256" viewBox="0 0 256 256" fill="none" xmlns="http://www.w3.org/2000/svg">
<g clip-path="url(#clip0_4259_24)">
<circle cx="107.576" cy="31.5759" r="11.5759" fill="#D9D9D9"/>
<circle cx="107.576" cy="159.576" r="11.5759" fill="#D9D9D9"/>
<circle cx="107.576" cy="95.5759" r="11.5759" fill="#D9D9D9"/>
<circle cx="107.576" cy="223.576" r="11.5759" fill="#D9D9D9"/>
<circle cx="75.5759" cy="63.5759" r="11.5759" fill="#D9D9D9"/>
<circle cx="75.5759" cy="191.576" r="11.5759" fill="#D9D9D9"/>
<circle cx="75.5759" cy="127.576" r="11.5759" fill="#D9D9D9"/>
<circle cx="171.576" cy="31.5759" r="11.5759" fill="#D9D9D9"/>
<circle cx="171.576" cy="159.576" r="11.5759" fill="#D9D9D9"/>
<circle cx="171.576" cy="95.5759" r="11.5759" fill="#D9D9D9"/>
<circle cx="171.576" cy="223.576" r="11.5759" fill="#D9D9D9"/>
<circle cx="139.576" cy="63.5759" r="11.5759" fill="#D9D9D9"/>
<circle cx="139.576" cy="191.576" r="11.5759" fill="#D9D9D9"/>
<circle cx="139.576" cy="127.576" r="11.5759" fill="#D9D9D9"/>
<circle cx="235.576" cy="31.5759" r="11.5759" fill="#D9D9D9"/>
<circle cx="235.576" cy="159.576" r="11.5759" fill="#D9D9D9"/>
<circle cx="235.576" cy="95.5759" r="11.5759" fill="#D9D9D9"/>
<circle cx="235.576" cy="223.576" r="11.5759" fill="#D9D9D9"/>
<circle cx="203.576" cy="63.5759" r="11.5759" fill="#D9D9D9"/>
<circle cx="203.576" cy="191.576" r="11.5759" fill="#D9D9D9"/>
<circle cx="203.576" cy="127.576" r="11.5759" fill="#D9D9D9"/>
<circle cx="44" cy="32" r="12" fill="#D9D9D9"/>
<circle cx="44" cy="160" r="12" fill="#D9D9D9"/>
<circle cx="44" cy="96" r="12" fill="#D9D9D9"/>
<circle cx="44" cy="224" r="12" fill="#D9D9D9"/>
<circle cx="12" cy="64" r="12" fill="#D9D9D9"/>
<circle cx="12" cy="192" r="12" fill="#D9D9D9"/>
<circle cx="12" cy="128" r="12" fill="#D9D9D9"/>
</g>
<defs>
<clipPath id="clip0_4259_24">
<rect width="256" height="256" fill="white"/>
</clipPath>
</defs>
</svg>
